:version 1.10
:name ASF
:units
  mass 1
  length 1
  angle deg
:documentation
  ASF file generated by Kaydara
:root
  axis xyz
  order  tx ty tz rx ry rz
  position 0 0 0
  orientation 0 0 0
:bonedata
  begin
    id 1
    name LeftUpLegDummy
    direction 1 -2.30186e-007 -8.31532e-007
    length 2.93387
    axis 0 0 0 xyz
  end
  begin
    id 2
    name LeftUpLeg
    direction -1.82929e-007 -1 -1.48925e-009
    length 17.3336
    axis -3.48766 0.00143442 -0.000521554 xyz
    dof rx ry rz
  end
  begin
    id 3
    name LeftLeg
    direction -1.82929e-007 -1 -5.23717e-011
    length 14.9995
    axis 3.68178 -0.00654042 -0.000282425 xyz
    dof rx ry rz
  end
  begin
    id 4
    name LeftFoot
    direction 8.31532e-007 -4.54534e-011 1
    length 6.74421
    axis 1.87234e-006 4.66016e-005 -5.96866e-006 xyz
    dof rx ry rz
  end
  begin
    id 5
    name LeftToes
    direction 0.00818058 -0.00485161 0.999955
    length 3.85048
    axis 1.06247e-005 4.65869e-005 -5.96999e-006 xyz
    dof rx ry rz
  end
  begin
    id 6
    name SpineDummy
    direction -5.8607e-008 0.943407 -0.331637
    length 5.93572
    axis 0 0 0 xyz
  end
  begin
    id 7
    name Spine
    direction -1.04988e-007 0.999988 0.00495137
    length 10.1015
    axis -0.001389 0.000121417 6.61666e-006 xyz
    dof rx ry rz
  end
  begin
    id 8
    name Spine1
    direction 0 0 0
    length 0
    axis -0.001389 0.00012144 6.56766e-006 xyz
    dof rx ry rz
  end
  begin
    id 9
    name RightShoulderDummy
    direction -0.98348 0.17941 -0.0240696
    length 3.59882
    axis -0.001389 0.00012144 6.56766e-006 xyz
  end
  begin
    id 10
    name RightShoulder
    direction -0.978693 0.204882 0.0135597
    length 2.70001
    axis 0.215806 0.000203631 -0.00679732 xyz
    dof rx ry rz
  end
  begin
    id 11
    name RightArm
    direction -1 3.85509e-006 8.31394e-007
    length 10.2459
    axis -23.2009 -0.134239 -0.964098 xyz
    dof rx ry rz
  end
  begin
    id 12
    name RightForeArm
    direction -1 3.85569e-006 8.3129e-007
    length 8.16799
    axis -9.92322 0.0658061 0.17887 xyz
    dof rx ry rz
  end
  begin
    id 13
    name RightHand
    direction -0.992843 -0.0414604 0.112003
    length 5.28593
    axis -0.00960638 0.00330669 -0.185225 xyz
    dof rx ry rz
  end
  begin
    id 14
    name LeftShoulder1Dummy
    direction 0.983523 0.179172 -0.0240748
    length 3.59866
    axis -0.001389 0.00012144 6.56766e-006 xyz
  end
  begin
    id 15
    name LeftShoulder1
    direction 0.978627 0.205195 0.0135605
    length 2.70019
    axis -0.001389 0.00012144 6.57583e-006 xyz
    dof rx ry rz
  end
  begin
    id 16
    name LeftArm
    direction 1 3.51895e-006 -8.60188e-007
    length 10.2459
    axis -23.1894 0.134785 0.967513 xyz
    dof rx ry rz
  end
  begin
    id 17
    name LeftForeArm
    direction 1 3.51921e-006 -7.32029e-007
    length 8.16799
    axis -9.91835 -0.0656957 -0.177789 xyz
    dof rx ry rz
  end
  begin
    id 18
    name LeftHand
    direction 0.992938 -0.0411636 0.11126
    length 5.32135
    axis -0.00960237 -0.00340661 0.185177 xyz
    dof rx ry rz
  end
  begin
    id 19
    name HEadDummy
    direction 1.01974e-006 0.999861 -0.016675
    length 2.99946
    axis -0.001389 0.00012144 6.56766e-006 xyz
  end
  begin
    id 20
    name HEad
    direction -0.0222689 0.980941 0.193023
    length 5.12695
    axis -0.001389 0.00012144 6.56766e-006 xyz
    dof rx ry rz
  end
  begin
    id 21
    name RightUpLegDummy
    direction -1 2.30186e-007 8.31532e-007
    length 2.93387
    axis 0 0 0 xyz
  end
  begin
    id 22
    name RightUpLeg
    direction -1.82966e-007 -1 1.56832e-007
    length 17.3336
    axis -3.4909 -0.000906625 0.00028951 xyz
    dof rx ry rz
  end
  begin
    id 23
    name RightLeg
    direction -1.82786e-007 -1 -1.80317e-007
    length 14.9995
    axis 3.68513 0.0193739 -0.131021 xyz
    dof rx ry rz
  end
  begin
    id 24
    name RightFoot
    direction 8.31721e-007 -4.63324e-011 1
    length 6.74421
    axis 4.81691e-005 -0.120479 -0.188785 xyz
    dof rx ry rz
  end
  begin
    id 25
    name RightToes
    direction 0.00124746 -0.014064 0.9999
    length 3.85082
    axis 0.000481921 0.542163 -0.142575 xyz
    dof rx ry rz
  end
:hierarchy
  begin
    root LeftUpLegDummy SpineDummy RightUpLegDummy
    LeftUpLegDummy LeftUpLeg
    LeftUpLeg LeftLeg
    LeftLeg LeftFoot
    LeftFoot LeftToes
    SpineDummy Spine
    Spine Spine1
    Spine1 RightShoulderDummy LeftShoulder1Dummy HEadDummy
    RightShoulderDummy RightShoulder
    RightShoulder RightArm
    RightArm RightForeArm
    RightForeArm RightHand
    LeftShoulder1Dummy LeftShoulder1
    LeftShoulder1 LeftArm
    LeftArm LeftForeArm
    LeftForeArm LeftHand
    HEadDummy HEad
    RightUpLegDummy RightUpLeg
    RightUpLeg RightLeg
    RightLeg RightFoot
    RightFoot RightToes
  end

:SAMPLES-PER-SECOND 30
:FULLY-SPECIFIED
:DEGREES
54
root  -3.94279 34.0911 -9.38215 2.55498 15.08 0.00288973
LeftUpLeg  -5.71841 8.97808 -1.12544
LeftLeg  12.7247 4.05452 0.643246
LeftFoot  -3.27772 -0.00662144 -0.231436
LeftToes  -7.88602 1.92152e-006 4.03786e-008
Spine  2.90394 0.174753 -1.51304
Spine1  5.63076 0.213614 -2.70938
RightShoulder  0.011505 3.97788 6.23144
RightArm  -23.8591 -11.1611 70.4593
RightForeArm  25.8582 33.7157 6.75656
RightHand  0.496874 -12.265 -4.2498
LeftShoulder1  0.0419482 0.11059 -7.96298
LeftArm  -17.3219 8.47804 -61.9889
LeftForeArm  23.2131 -29.2849 -5.66907
LeftHand  0.0483025 1.32706 3.25411
HEad  -7.8864 -21.6716 4.53944
RightUpLeg  -25.0783 -16.6792 -1.57517
RightLeg  21.2306 4.61598 1.45608
RightFoot  3.76513 -0.00213634 0.310882
RightToes  -38.7667 -0.223069 -0.318477
55
root  -3.83892 34.0326 -8.74529 2.94522 16.2414 0.509324
LeftUpLeg  -5.1192 8.68844 -1.32725
LeftLeg  13.172 3.24581 0.540759
LeftFoot  -4.2935 -0.00911615 -0.2432
LeftToes  -8.27349 1.92152e-006 4.03786e-008
Spine  2.83636 0.115726 -1.62142
Spine1  5.49678 0.0818098 -2.93398
RightShoulder  0.0114817 3.85701 6.19871
RightArm  -23.9003 -9.68899 69.0405
RightForeArm  23.8539 35.3431 7.18443
RightHand  0.52528 -12.8072 -4.30557
LeftShoulder1  0.0441789 -0.0696935 -7.90067
LeftArm  -16.7849 8.52156 -61.9956
LeftForeArm  23.646 -28.0723 -5.38958
LeftHand  0.0489468 1.50489 3.05782
HEad  -7.79725 -22.5661 4.90915
RightUpLeg  -25.1423 -18.3644 -1.23213
RightLeg  13.998 5.9151 1.07583
RightFoot  3.05704 -0.00503002 0.321692
RightToes  -38.0538 -0.222543 -0.318085
56
root  -3.74646 33.953 -8.10894 3.47536 17.1292 1.3212
LeftUpLeg  -4.56903 8.45923 -1.79451
LeftLeg  13.6657 2.69698 0.472998
LeftFoot  -5.25006 -0.00943625 -0.246003
LeftToes  -8.89358 1.92152e-006 4.03786e-008
Spine  2.72335 0.136191 -1.85361
Spine1  5.26826 0.0998956 -3.38395
RightShoulder  0.0116581 3.70181 6.11367
RightArm  -24.4592 -7.55821 67.6377
RightForeArm  22.2971 36.8021 7.58315
RightHand  0.544277 -13.2278 -4.31937
LeftShoulder1  0.0476655 -0.186871 -7.81566
LeftArm  -16.6056 8.74859 -62.0207
LeftForeArm  24.5292 -26.2657 -4.98495
LeftHand  0.0468955 1.75959 2.67252
HEad  -7.50925 -23.5068 5.28851
RightUpLeg  -25.7215 -20.5267 -0.779461
RightLeg  8.6888 6.97632 0.611666
RightFoot  3.08871 -0.0109533 0.382524
RightToes  -39.0233 -0.220537 -0.316621
57
root  -3.67272 33.851 -7.45361 4.11373 17.9889 2.22919
LeftUpLeg  -4.09575 8.13742 -2.27454
LeftLeg  14.2458 2.20974 0.410338
LeftFoot  -6.24938 -0.00932699 -0.236641
LeftToes  -9.64923 1.92152e-006 4.03786e-008
Spine  2.55988 0.151311 -2.10961
Spine1  4.93499 0.0984683 -3.86144
RightShoulder  0.0120731 3.57868 5.95569
RightArm  -25.6164 -4.99322 66.2692
RightForeArm  20.8839 38.2617 7.99789
RightHand  0.598796 -13.5604 -4.66105
LeftShoulder1  0.0534826 -0.311285 -7.82974
LeftArm  -16.7369 9.30452 -61.9767
LeftForeArm  25.1917 -24.2458 -4.54769
LeftHand  0.0465673 1.8679 2.4768
HEad  -7.06275 -24.4736 5.47145
RightUpLeg  -26.3336 -21.8981 -0.635797
RightLeg  5.3768 6.37433 0.189912
RightFoot  3.22938 -0.0116565 0.367726
RightToes  -39.8938 -0.217635 -0.314522
58
root  -3.62262 33.7346 -6.76414 4.62318 18.7804 2.99644
LeftUpLeg  -3.54125 7.93426 -2.49773
LeftLeg  15.0014 1.6556 0.329613
LeftFoot  -7.29987 -0.0104439 -0.202394
LeftToes  -11.0322 1.92152e-006 4.03786e-008
Spine  2.42997 0.20815 -2.29071
Spine1  4.66213 0.190638 -4.19435
RightShoulder  0.012786 3.56244 5.75377
RightArm  -27.104 -2.16064 64.7413
RightForeArm  19.5928 39.8143 8.45825
RightHand  0.671114 -14.0011 -5.08894
LeftShoulder1  0.059616 -0.445318 -7.97055
LeftArm  -17.1819 10.1419 -61.9287
LeftForeArm  25.987 -22.7147 -4.2257
LeftHand  0.0475622 1.95034 2.41511
HEad  -6.759 -25.4048 5.5279
RightUpLeg  -26.4758 -21.4453 -1.15831
RightLeg  4.37587 3.38144 0.0420637
RightFoot  3.16532 -0.00194463 0.199064
RightToes  -39.0916 -0.211267 -0.309933
59
root  -3.593 33.6115 -6.01893 4.95796 19.7293 3.70631
LeftUpLeg  -2.76774 7.50682 -2.55613
LeftLeg  15.7868 1.23244 0.262458
LeftFoot  -8.36777 -0.0121523 -0.166131
LeftToes  -12.3186 1.92152e-006 4.03786e-008
Spine  2.31941 0.243042 -2.40476
Spine1  4.43167 0.254209 -4.41284
RightShoulder  0.0138938 3.53645 5.52115
RightArm  -28.6524 0.691135 63.1535
RightForeArm  19.1052 41.5452 8.99776
RightHand  0.765604 -14.2149 -5.76172
LeftShoulder1  0.0640172 -0.55638 -8.11368
LeftArm  -17.9448 11.1085 -61.9915
LeftForeArm  26.864 -20.9542 -3.86455
LeftHand  0.0571603 2.19114 2.61005
HEad  -6.4392 -26.2814 5.47361
RightUpLeg  -26.2312 -20.6629 -1.90707
RightLeg  5.69086 0.49649 0.0186635
RightFoot  2.64268 0.00777377 0.0405144
RightToes  -38.1861 -0.204157 -0.304648
60
root  -3.59018 33.5018 -5.19846 5.16891 20.9633 4.14352
LeftUpLeg  -1.88014 6.57219 -2.25847
LeftLeg  16.5906 1.0825 0.246144
LeftFoot  -9.35749 -0.0129278 -0.157971
LeftToes  -13.5763 1.92152e-006 4.03786e-008
Spine  2.15926 0.241294 -2.39829
Spine1  4.10713 0.258633 -4.41635
RightShoulder  0.0154678 3.39967 5.21227
RightArm  -29.9747 3.17457 61.6501
RightForeArm  18.8526 43.3942 9.60828
RightHand  0.888522 -14.2183 -6.74215
LeftShoulder1  0.0652612 -0.710873 -8.09346
LeftArm  -19.1333 12.3729 -62.245
LeftForeArm  27.9657 -19.0326 -3.48014
LeftHand  0.0617485 2.27525 2.73047
HEad  -5.82517 -27.1073 5.21623
RightUpLeg  -25.2865 -19.8035 -2.60204
RightLeg  7.46383 0.46104 0.0318573
RightFoot  3.06727 0.00893829 0.0436899
RightToes  -37.5793 -0.19944 -0.300197
61
root  -3.63812 33.4189 -4.29635 5.08727 22.6395 3.6708
LeftUpLeg  -1.14793 5.60807 -0.877399
LeftLeg  17.718 0.551205 0.135719
LeftFoot  -10.3079 -0.00724576 -0.0803416
LeftToes  -15.4417 1.92152e-006 4.03786e-008
Spine  1.91773 0.238841 -2.07982
Spine1  3.61353 0.285245 -3.85765
RightShoulder  0.0176511 3.16835 5.07899
RightArm  -31.2817 4.92262 59.9285
RightForeArm  18.5619 45.323 10.2877
RightHand  0.947889 -14.2916 -7.17683
LeftShoulder1  0.0638091 -0.883292 -7.96367
LeftArm  -20.3779 13.8445 -62.6875
LeftForeArm  29.0662 -17.1133 -3.10529
LeftHand  0.0725679 2.55069 2.88096
HEad  -5.12841 -28.0301 4.85168
RightUpLeg  -23.6048 -19.5649 -2.21555
RightLeg  6.7453 3.62293 0.195181
RightFoot  5.86265 -0.000281071 0.382992
RightToes  -37.2486 -0.196885 -0.299058
62
root  -3.7129 33.3795 -3.38407 4.94656 24.1138 2.92822
LeftUpLeg  -0.517311 4.12575 0.635962
LeftLeg  18.7762 0.811257 0.21659
LeftFoot  -10.8895 -0.0134548 -0.141169
LeftToes  -17.0397 1.92152e-006 4.03786e-008
Spine  1.61735 0.345719 -1.68561
Spine1  3.00807 0.546578 -3.16501
RightShoulder  0.0204713 2.95961 5.11025
RightArm  -32.4653 6.07489 58.2409
RightForeArm  18.3084 47.0896 10.9536
RightHand  1.01957 -14.3794 -7.69583
LeftShoulder1  0.0574261 -0.969927 -8.00242
LeftArm  -21.9989 15.295 -63.0219
LeftForeArm  30.3622 -15.2198 -2.74313
LeftHand  0.0845469 2.76826 3.12024
HEad  -4.57978 -29.0402 4.72249
RightUpLeg  -21.9618 -19.0047 -1.74714
RightLeg  5.82059 6.55463 0.246015
RightFoot  11.9195 -0.102384 1.35819
RightToes  -38.5898 -0.207317 -0.307019
63
root  -3.81347 33.4154 -2.48306 4.46276 25.2044 1.83806
LeftUpLeg  0.217257 2.41378 2.3542
LeftLeg  19.8079 1.72013 0.494912
LeftFoot  -10.5911 -0.0296217 -0.319592
LeftToes  -19.5601 1.92152e-006 4.03786e-008
Spine  1.40367 0.58422 -1.16811
Spine1  2.56494 1.10085 -2.26792
RightShoulder  0.0261106 2.8519 5.09055
RightArm  -33.5486 6.75458 56.8372
RightForeArm  18.1686 48.3226 11.4461
RightHand  1.06544 -14.3594 -8.06927
LeftShoulder1  0.0487794 -0.920147 -8.04791
LeftArm  -24.3885 16.5823 -63.5982
LeftForeArm  31.7264 -13.4076 -2.4027
LeftHand  0.100903 2.97908 3.5008
HEad  -4.40816 -29.8321 4.79903
RightUpLeg  -21.2614 -20.1568 -0.595155
RightLeg  7.32572 8.01753 0.511126
RightFoot  14.0971 -0.196537 1.96688
RightToes  -40.8153 -0.225029 -0.319681
